Coordinates
version=1
nRows=19
nColumns=63
inDegrees=yes

Units are S.I. units (second, meters, Newtons, ...)
If the header above contains a line with 'inDegrees', this indicates whether rotational values are in degrees (yes) or radians (no).

endheader
time	pelvis_tilt	pelvis_list	pelvis_rotation	pelvis_tx	pelvis_ty	pelvis_tz	hip_flexion_r	hip_adduction_r	hip_rotation_r	knee_angle_r	knee_angle_r_beta	ankle_angle_r	subtalar_angle_r	mtp_angle_r	hip_flexion_l	hip_adduction_l	hip_rotation_l	knee_angle_l	knee_angle_l_beta	ankle_angle_l	subtalar_angle_l	mtp_angle_l	L5_S1_Flex_Ext	L5_S1_Lat_Bending	L5_S1_axial_rotation	L4_L5_Flex_Ext	L4_L5_Lat_Bending	L4_L5_axial_rotation	L3_L4_Flex_Ext	L3_L4_Lat_Bending	L3_L4_axial_rotation	L2_L3_Flex_Ext	L2_L3_Lat_Bending	L2_L3_axial_rotation	L1_L2_Flex_Ext	L1_L2_Lat_Bending	L1_L2_axial_rotation	L1_T12_Flex_Ext	L1_T12_Lat_Bending	L1_T12_axial_rotation	Abs_r3	Abs_r2	Abs_r1	Abs_t1	Abs_t2	neck_flexion	neck_bending	neck_rotation	arm_flex_r	arm_add_r	arm_rot_r	elbow_flex_r	pro_sup_r	wrist_flex_r	wrist_dev_r	arm_flex_l	arm_add_l	arm_rot_l	elbow_flex_l	pro_sup_l	wrist_flex_l	wrist_dev_l
2.322034	2.331269	-0.011610	85.978066	0.120419	1.081429	0.091895	1.795164	0.442134	9.338161	8.608737	0.150251	30.747083	-9.957529	0.000000	-3.074742	0.994141	5.107682	0.593141	0.010352	28.263912	-7.094570	0.000000	0.004419	1.156297	-0.772826	0.008207	1.537876	-0.821127	0.007260	2.811422	-0.821127	0.005051	2.811422	-0.676223	0.004104	2.357922	-0.627921	0.002525	1.791105	-0.579619	0.031565	13.080267	-4.298225	0.000000	0.000000	21.258169	-2.735039	15.802311	17.182454	-15.234660	122.433331	6.196450	4.869895	-5.979136	1.046501	-4.217507	-12.686389	55.931866	22.791815	83.398980	-10.516424	-9.814045
2.338983	2.422281	0.006689	85.778112	0.120536	1.081232	0.091361	1.710326	0.543931	9.962321	8.468543	0.147804	30.688421	-10.526880	0.000000	-3.149849	0.917616	5.005974	0.591206	0.010318	28.234269	-7.213614	0.000000	-0.000144	1.182583	-0.761258	-0.000267	1.572836	-0.808836	-0.000236	2.875333	-0.808836	-0.000164	2.875333	-0.666100	-0.000134	2.411523	-0.618522	-0.000082	1.831821	-0.570943	-0.001027	13.377617	-4.233887	0.000000	0.000000	21.994911	-3.197429	14.592321	17.128067	-15.334438	122.774626	6.180017	5.174414	-5.757242	1.654228	-4.057910	-12.518158	56.392165	22.683133	83.610468	-10.370247	-9.491582
2.355932	2.501865	0.022805	85.542590	0.120680	1.081084	0.090916	1.611881	0.619501	10.396849	8.249334	0.143978	30.693905	-10.737455	0.000000	-3.217973	0.854938	4.676164	0.581366	0.010147	28.267566	-7.042628	0.000000	-0.008718	1.206270	-0.719861	-0.016191	1.604340	-0.764852	-0.014324	2.932926	-0.764852	-0.009964	2.932926	-0.629878	-0.008096	2.459827	-0.584887	-0.004982	1.868513	-0.539896	-0.062275	13.645573	-4.003649	0.000000	0.000000	22.676103	-3.684897	13.414327	16.992160	-15.444300	122.716614	6.099945	5.964413	-5.630191	2.260458	-3.733292	-12.358213	57.356046	22.503009	83.372459	-10.243007	-9.233861
2.372881	2.576351	0.031493	85.266555	0.120811	1.080979	0.090558	1.498916	0.679936	10.736341	7.945543	0.138676	30.712964	-10.735407	0.000000	-3.275363	0.801669	4.481021	0.563799	0.009840	28.264808	-7.072761	0.000000	-0.019190	1.228524	-0.644748	-0.035638	1.633937	-0.685045	-0.031528	2.987034	-0.685045	-0.021932	2.987034	-0.564154	-0.017820	2.505207	-0.523858	-0.010965	1.902984	-0.483561	-0.137073	13.897312	-3.585894	0.000000	0.000000	23.286797	-4.229266	12.210658	16.755208	-15.565585	122.896605	5.886416	6.652324	-5.543274	2.927116	-3.260016	-12.188195	58.692982	22.260668	82.941252	-10.138888	-8.980700
2.389831	2.632379	0.019828	85.015820	0.120885	1.080846	0.090276	1.397274	0.704359	10.798287	7.600050	0.132646	30.809611	-10.337374	0.000000	-3.301139	0.765605	4.285963	0.542168	0.009463	28.296685	-7.033121	0.000000	-0.029527	1.247209	-0.568976	-0.054835	1.658787	-0.604537	-0.048510	3.032463	-0.604537	-0.033747	3.032463	-0.497854	-0.027419	2.543308	-0.462293	-0.016872	1.931926	-0.426732	-0.210910	14.108673	-3.164474	0.000000	0.000000	23.849789	-4.642221	11.199584	16.468204	-15.679461	123.135483	5.616773	7.107004	-5.481923	3.556983	-2.890619	-12.014730	59.192397	22.012427	82.822259	-9.660412	-8.856380
2.406780	2.669382	0.002342	84.752209	0.120893	1.080720	0.090065	1.279518	0.693388	10.672187	7.190563	0.125499	30.939022	-9.634980	0.000000	-3.314521	0.752655	4.109615	0.517785	0.009037	28.336316	-6.992363	0.000000	-0.039541	1.263369	-0.479362	-0.073432	1.680280	-0.509322	-0.064962	3.071755	-0.509322	-0.045192	3.071755	-0.419442	-0.036718	2.576261	-0.389481	-0.022594	1.956958	-0.359521	-0.282438	14.291479	-2.666066	0.000000	0.000000	24.338462	-4.995719	10.314075	16.090973	-15.783822	123.442968	5.228163	7.457564	-5.473263	4.222496	-2.492706	-11.838143	59.695010	21.724837	82.609915	-9.116889	-8.752413
2.423729	2.689855	-0.012185	84.538059	0.120803	1.080569	0.089888	1.141317	0.647933	10.196336	6.750409	0.117817	31.143228	-8.488712	0.000000	-3.322128	0.757543	3.865552	0.493316	0.008610	28.423018	-6.785220	0.000000	-0.049262	1.276210	-0.406717	-0.091485	1.697359	-0.432136	-0.080933	3.102977	-0.432136	-0.056302	3.102977	-0.355877	-0.045745	2.602447	-0.330457	-0.028148	1.976849	-0.305037	-0.351874	14.436740	-2.262035	0.000000	0.000000	24.767183	-5.197694	9.616679	15.673271	-15.878445	123.254615	4.855948	7.863778	-5.555660	4.788099	-2.254302	-11.663769	59.433099	21.487252	82.227199	-8.170377	-8.680824
2.440678	2.694426	-0.023875	84.386494	0.120594	1.080388	0.089725	0.987454	0.578010	9.602598	6.303768	0.110022	31.358398	-7.251977	0.000000	-3.326672	0.779444	3.763223	0.467974	0.008168	28.487532	-6.680746	0.000000	-0.056948	1.285601	-0.356064	-0.105759	1.709849	-0.378318	-0.093561	3.125811	-0.378318	-0.065086	3.125811	-0.311556	-0.052882	2.621598	-0.289302	-0.032540	1.991396	-0.267048	-0.406777	14.542977	-1.980320	0.000000	0.000000	25.138590	-5.279100	9.037974	15.224164	-15.965849	123.006151	4.468919	8.068487	-5.648336	5.236501	-2.145750	-11.498523	58.695683	21.275361	81.905344	-7.138458	-8.712413
2.457627	2.671478	-0.036316	84.256129	0.120320	1.080184	0.089575	0.828033	0.475005	8.997571	5.859348	0.102265	31.550902	-6.036846	0.000000	-3.326598	0.830088	3.678357	0.444582	0.007759	28.551215	-6.541779	0.000000	-0.061672	1.291115	-0.325347	-0.114532	1.717183	-0.345681	-0.101321	3.139217	-0.345681	-0.070485	3.139217	-0.284678	-0.057269	2.632841	-0.264344	-0.035240	1.999937	-0.244010	-0.440519	14.605349	-1.809480	0.000000	0.000000	25.402945	-5.174183	8.726175	14.762558	-16.042432	122.789201	4.066773	8.125205	-5.791277	5.549781	-2.089354	-11.342044	58.131414	21.014624	81.195842	-6.119267	-8.949458
2.474576	2.633235	-0.046413	84.188106	0.119989	1.079941	0.089445	0.670372	0.367961	8.532795	5.454451	0.095198	31.677439	-5.107828	0.000000	-3.324596	0.893537	3.658442	0.419679	0.007325	28.605489	-6.421438	0.000000	-0.064415	1.292023	-0.326568	-0.119625	1.718391	-0.346978	-0.105827	3.141425	-0.346978	-0.073620	3.141425	-0.285747	-0.059815	2.634694	-0.265336	-0.036807	2.001344	-0.244926	-0.460108	14.615624	-1.816273	0.000000	0.000000	25.647506	-4.965997	8.462021	14.314467	-16.123047	122.363067	3.734752	8.068236	-5.985965	5.679304	-2.139044	-11.213752	57.495323	20.798014	80.581183	-5.267177	-9.213842
2.491525	2.572039	-0.054362	84.170190	0.119620	1.079671	0.089342	0.523702	0.238180	7.971190	5.102587	0.089057	31.810345	-4.133208	0.000000	-3.319266	0.976800	3.573749	0.395482	0.006902	28.688423	-6.137615	0.000000	-0.065489	1.287723	-0.354558	-0.121620	1.712672	-0.376718	-0.107592	3.130970	-0.376718	-0.074848	3.130970	-0.310239	-0.060813	2.625925	-0.288079	-0.037421	1.994683	-0.265919	-0.467784	14.566982	-1.971948	0.000000	0.000000	25.866492	-4.631312	8.314706	13.877624	-16.213644	121.650135	3.466241	8.068199	-6.233790	5.590552	-2.237877	-11.120371	56.938529	20.586892	80.070908	-4.546752	-9.511533
2.508475	2.490378	-0.063179	84.164593	0.119274	1.079388	0.089267	0.399003	0.099465	7.511315	4.818728	0.084103	31.893208	-3.353156	0.000000	-3.309743	1.079008	3.504411	0.372339	0.006499	28.770660	-5.864653	0.000000	-0.065226	1.278505	-0.397094	-0.121131	1.700412	-0.421912	-0.107160	3.108557	-0.421912	-0.074547	3.108557	-0.347457	-0.060569	2.607128	-0.322639	-0.037270	1.980404	-0.297821	-0.465902	14.462706	-2.208518	0.000000	0.000000	26.075782	-4.199853	8.264153	13.445674	-16.325547	120.856765	3.254192	7.990642	-6.536007	5.319051	-2.296477	-11.066438	56.901524	20.347577	79.437940	-4.079731	-9.815368
2.525424	2.384115	-0.085831	84.164487	0.118980	1.079071	0.089184	0.308034	-0.051762	7.165569	4.603837	0.080352	31.941395	-2.766860	0.000000	-3.283527	1.203061	3.460139	0.351155	0.006129	28.861520	-5.627551	0.000000	-0.061756	1.263742	-0.454826	-0.114687	1.680777	-0.483253	-0.101458	3.072663	-0.483253	-0.070581	3.072663	-0.397973	-0.057346	2.577023	-0.369546	-0.035287	1.957537	-0.341120	-0.441115	14.295706	-2.529607	0.000000	0.000000	26.290058	-3.642495	8.370008	13.018831	-16.454884	120.049617	3.107886	7.804624	-6.891251	4.833749	-2.364860	-11.037602	57.154417	20.105070	78.712695	-3.770925	-10.066945
2.542373	2.270286	-0.107168	84.091567	0.118802	1.078781	0.089115	0.244218	-0.189707	7.118258	4.468305	0.077987	31.881953	-2.564071	0.000000	-3.262161	1.338481	3.476338	0.331189	0.005780	28.928269	-5.587311	0.000000	-0.057737	1.245510	-0.498516	-0.107223	1.656529	-0.529673	-0.094856	3.028333	-0.529673	-0.065988	3.028333	-0.436201	-0.053615	2.539844	-0.405044	-0.032991	1.929295	-0.373887	-0.412409	14.089460	-2.772594	0.000000	0.000000	26.495044	-3.087427	8.470498	12.576152	-16.608114	119.362418	2.969876	7.536241	-7.201271	4.283820	-2.289601	-11.018305	58.305156	19.787544	77.778098	-3.731787	-10.200355
2.559322	2.148842	-0.128556	83.990308	0.118686	1.078497	0.089004	0.196849	-0.324085	7.270669	4.395655	0.076719	31.760976	-2.640034	0.000000	-3.243391	1.484446	3.545649	0.312645	0.005457	28.993739	-5.678181	0.000000	-0.052508	1.223447	-0.542541	-0.097513	1.627185	-0.576450	-0.086266	2.974690	-0.576450	-0.060012	2.974690	-0.474723	-0.048759	2.494854	-0.440815	-0.030003	1.895120	-0.406906	-0.375060	13.839882	-3.017451	0.000000	0.000000	26.706804	-2.528764	8.567582	12.137629	-16.770381	118.789092	2.864295	7.264508	-7.526852	3.688320	-2.163644	-11.003948	59.930393	19.433793	76.751004	-3.854137	-10.266170
2.576271	2.041383	-0.162122	83.803842	0.118702	1.078223	0.088802	0.175584	-0.428957	7.698783	4.378820	0.076425	31.567064	-3.019886	0.000000	-3.225272	1.619039	3.638726	0.295952	0.005165	29.056241	-5.935091	0.000000	-0.044744	1.200795	-0.576427	-0.083094	1.597057	-0.612454	-0.073510	2.919613	-0.612454	-0.051138	2.919613	-0.504374	-0.041549	2.448661	-0.468347	-0.025567	1.860031	-0.432320	-0.319600	13.583631	-3.205915	0.000000	0.000000	26.918482	-1.936686	8.726210	11.704840	-16.948130	118.282806	2.795143	6.972385	-7.799890	3.082718	-1.999072	-10.977174	61.966632	19.061863	75.629205	-4.143536	-10.191538
2.593220	1.958520	-0.208815	83.523140	0.118831	1.077973	0.088473	0.182334	-0.493364	8.424260	4.414798	0.077053	31.307094	-3.728636	0.000000	-3.212237	1.733988	3.731368	0.279748	0.004883	29.103779	-6.356167	0.000000	-0.034091	1.179316	-0.602596	-0.063310	1.568490	-0.640259	-0.056008	2.867389	-0.640259	-0.038962	2.867389	-0.527272	-0.031657	2.404861	-0.489610	-0.019480	1.826761	-0.451947	-0.243508	13.340659	-3.351460	0.000000	0.000000	27.070060	-1.399977	8.890093	11.326447	-17.122977	118.384366	2.720044	6.631211	-7.923205	2.557949	-1.835862	-10.914790	64.126748	18.645034	74.242781	-4.361849	-10.088918
2.610169	1.907267	-0.266595	83.167408	0.119059	1.077750	0.088074	0.228703	-0.510694	9.406832	4.517384	0.078843	31.001808	-4.740527	0.000000	-3.203849	1.821977	3.855825	0.263860	0.004605	29.131186	-6.971779	0.000000	-0.021878	1.159300	-0.621842	-0.040629	1.541869	-0.660707	-0.035943	2.818721	-0.660707	-0.025004	2.818721	-0.544112	-0.020316	2.364044	-0.505247	-0.012501	1.795755	-0.466382	-0.156270	13.114230	-3.458499	0.000000	0.000000	27.122016	-0.874150	9.108237	11.017124	-17.304288	118.673610	2.713410	6.253404	-7.944805	2.047965	-1.687632	-11.056892	62.832032	18.871672	76.036100	-5.157258	-9.637018
2.627119	1.901733	-0.352157	82.703445	0.119436	1.077575	0.087512	0.300908	-0.474040	10.585352	4.619522	0.080626	30.669108	-5.882213	0.000000	-3.194616	1.863995	3.806435	0.249271	0.004351	29.187270	-7.527948	0.000000	-0.007643	1.143483	-0.638297	-0.014193	1.520832	-0.678191	-0.012556	2.780264	-0.678191	-0.008735	2.780264	-0.558510	-0.007097	2.331790	-0.518616	-0.004367	1.771255	-0.478723	-0.054591	12.935305	-3.550017	0.000000	0.000000	27.071919	-0.391227	9.435878	10.812779	-17.472009	119.321299	2.763172	5.900281	-7.904294	1.540228	-1.543763	-11.005226	63.331859	18.724569	76.040524	-5.578860	-9.300944
